# xmcd
#
# Track frame offsets:
#	150
#	12342
#	22225
#	36889
#	50002
#	65354
#	94036
#	103100
#	118016
#	128849
#	141161
#	163792
#	179509
#	191717
#	208339
#	216446
#
# Disc length: 3045 seconds
# Revision: 0
# Processed by: cddbd v1.5.2PL0 Copyright (c) Steve Scherf et al.
# Submitted via: dBpowerAMP V12.0
#
DISCID=fa0be310
DTITLE=Lindsay Butler - Vintage
DYEAR=2007
DGENRE=Country
TTITLE0=Wildwood Flower
TTITLE1=It Makes No Difference Now
TTITLE2=Homestead Waltz
TTITLE3=The Grasshopper
TTITLE4=Tomorrow Never Comes
TTITLE5=Jim Reeves Medley
TTITLE6=The Road To Gundagai
TTITLE7=The Waltz of he Willows
TTITLE8=Southern Aurora
TTITLE9=You Win Again
TTITLE10=Tex Morton Medley
TTITLE11=Loving Her Was Easier
TTITLE12=Jodi
TTITLE13=Muma's Hungry Eyes
TTITLE14=The Shearers Jamboree
TTITLE15=House Where The Wind Blows Cold
EXTD=
EXTT0=
EXTT1=
EXTT2=
EXTT3=
EXTT4=
EXTT5=
EXTT6=
EXTT7=
EXTT8=
EXTT9=
EXTT10=
EXTT11=
EXTT12=
EXTT13=
EXTT14=
EXTT15=
PLAYORDER=
